<svg width="248" height="315" viewBox="0 0 248 315" fill="none" xmlns="http://www.w3.org/2000/svg">
<path d="M116 66C116 29.5492 145.549 0 182 0C218.451 0 248 29.5492 248 66V88C248 136.601 208.601 176 160 176H116V66Z" fill="#222222"/>
<path d="M0 149.5C0 121.057 23.0573 98 51.5 98C79.9427 98 103 121.057 103 149.5V235H59.5C26.6391 235 0 208.361 0 175.5V149.5Z" fill="#222222"/>
<path d="M211 267.5C211 293.734 189.734 315 163.5 315C137.266 315 116 293.734 116 267.5L116 189L148 189C182.794 189 211 217.206 211 252L211 267.5Z" fill="#0086AB"/>
</svg>
