<svg width="96" height="96" viewBox="0 0 96 96" fill="none" xmlns="http://www.w3.org/2000/svg">
<g clip-path="url(#clip0_574_706)">
<path d="M16 72H80C82.2 72 84 70.2 84 68C84 65.8 82.2 64 80 64H16C13.8 64 12 65.8 12 68C12 70.2 13.8 72 16 72ZM16 52H80C82.2 52 84 50.2 84 48C84 45.8 82.2 44 80 44H16C13.8 44 12 45.8 12 48C12 50.2 13.8 52 16 52ZM12 28C12 30.2 13.8 32 16 32H80C82.2 32 84 30.2 84 28C84 25.8 82.2 24 80 24H16C13.8 24 12 25.8 12 28Z" fill="#222222"/>
</g>
<defs>
<clipPath id="clip0_574_706">
<rect width="96" height="96" fill="white"/>
</clipPath>
</defs>
</svg>
