<?xml version="1.0" encoding="UTF-8"?>
<svg id="Layer_1" data-name="Layer 1" xmlns="http://www.w3.org/2000/svg" viewBox="0 0 85 85">
  <path d="m43.91,35.7c1.59-.62,4.08-1.27,5.25-1.74,5.99-2.42,9.6-6.82,10.21-13.24.65-6.8-2.27-11.94-8.19-15.37-7.96-4.61-21.31-3.16-27.91,3.02-6.24,5.85-6.92,14.4-.72,20.2,4.23,3.96,9.58,6.73,14.41,10.07,5.76,3.98,11.95,7.49,17.12,12.13,5.69,5.11,6.72,14.74,1.7,21.09-.11-7.37-14.39-14.85-19.56-17.79-5.97-3.43-12.09-6.71-17.64-10.75-7.33-5.34-11.18-12.78-9.76-22.07,1.49-9.79,8.17-15.29,17.02-18.15C36.69-.41,47.69.04,58.42,3.9c9.05,3.25,13.86,9.23,13.65,16.33-.2,6.72-6.45,13.19-15.16,15.7-.53.15-1.08.24-2.54.55,1.8.55,2.63.88,3.44,1.14,3.12,1.03,6.08,1.96,9.01,3.37,7.38,3.57,11.92,9.3,12.22,17.84.32,9.28-3.04,16.8-11.54,20.96-4.29,2.09-9.24,2.91-13.96,4.01-2.21.52-4.57.46-6.86.47-12.31.04-27.05.02-40.73.02,6.89-4.22,7.7-9.88,7.67-15.91-.03-5.4,0-15.88,0-21.86,4.21,2.97,7.48,4.84,10.97,7.37.8.58,1.19,2.42,1.21,3.69.11,7.01.05,17.14.05,24.32,7.69,0,17.37.39,24.64-.22,13.29-2.32,19.89-19.52,11.93-31.24-2.9-4.27-6.31-6.37-10.85-9.89-1.63-1.27-3.36-2.4-5.17-3.41-.89-.5-1.76-1.01-2.47-1.43Z"/>
  <path d="m49.95,47.27c.79.51,1.58,1.03,2.32,1.61,1.63,1.29,3.17,2.68,4.36,4.4,1.49,2.15,2.36,4.52,2.52,7.13.25,3.89-.36,7.61-2.49,10.95-2.26,3.55-5.55,5.57-9.68,6.18-1.97.29-3.88-.06-5.71-.86-.07-.03-.31-.19-.37-.23-.15-.11-.36-.28-.46-.39.69.29,1.9.25,2.54.13,3.07-.6,5.43-2.2,6.59-5.17,1.17-2.98,1.37-6.78-1.57-9.61-1.76-1.32-3.42-2.47-5.88-3.93-3.64-1.82-6.57-3.83-10.66-6.14-1.3-.65-2.61-1.31-3.75-2.22"/>
</svg>