<?xml version="1.0" encoding="UTF-8"?>
<svg id="Layer_1" data-name="Layer 1" xmlns="http://www.w3.org/2000/svg" viewBox="0 0 85 85">
  <path d="m52.99,83.29c-1.93.22-18.22.31-20.16.32-8.09.03-13.5.01-21.58.02h0c-.02-3.13,0-9.87,0-13.01,0-7.11,0-14.21,0-21.32,0-1.8-.08-3.8-.04-5.6,0-.08-.04-.91,0-1.07.07.19.91,1.35.96,1.43,1.42,1.95,3.54,3.43,5.36,5.01,2.19,1.9,3.34,2.55,5.52,4.11.23.16.46.32.7.47.47.28,1.06.72,1.06,1.16-.02,8.05-.01,16.63-.01,24.68q0,.79.81.79c3.13,0,23.44.06,26.93-.49"/>
  <path d="m49.96,80.05c14.31-.53,19.59-18.2,11.76-29.74-2.86-4.21-6.21-6.27-10.68-9.73-1.61-1.25-3.31-2.36-5.09-3.36-.88-.49-1.73-.99-2.43-1.41,1.57-.61,4.01-1.25,5.17-1.71,5.9-2.38,9.45-6.71,10.06-13.03.64-6.7-2.24-11.76-8.07-15.13-7.84-4.54-20.98-3.11-27.48,2.98-6.14,5.76-6.81,14.18-.71,19.89,4.17,3.9,9.43,6.63,14.18,9.91,5.67,3.92,11.76,7.37,16.85,11.94,5.6,5.03,7.23,14.78,1.67,20.76-.11-7.25-14.17-14.62-19.26-17.52-5.88-3.38-11.9-6.61-17.36-10.58-7.22-5.25-11-12.59-9.61-21.72,1.47-9.64,8.04-15.05,16.75-17.87,10.7-3.46,21.52-3.02,32.09.78,8.91,3.2,13.65,9.09,13.44,16.07-.19,6.61-6.35,12.99-14.93,15.45-.52.15-1.06.23-2.5.54,1.77.54,2.59.86,3.38,1.12,3.07,1.02,5.99,1.93,8.87,3.32,7.27,3.52,11.74,9.16,12.02,17.56.31,9.14-2.99,16.54-11.36,20.63-4.22,2.06-11.5,3.89-13.74,4.09"/>
  <path d="m49.47,47.2c.78.5,1.56,1.01,2.28,1.59,1.6,1.27,3.12,2.63,4.29,4.34,1.46,2.12,2.32,4.45,2.48,7.02.24,3.83-.36,7.49-2.45,10.78-2.23,3.5-4.85,5.12-8.92,5.72-1.94.29-4.43.3-6.23-.49-.07-.03-.13-.07-.18-.12-.03-.02-.04-.07-.07-.11.66-.08,1.3-.13,1.94-.25,3.02-.59,5.35-2.16,6.49-5.09,1.15-2.94,1.35-6.67-1.55-9.46-1.73-1.3-3.36-2.43-5.79-3.87-3.58-1.8-6.47-3.77-10.5-6.04-1.28-.64-2.57-1.28-3.69-2.19"/>
</svg>